# xmcd
#
# Track frame offsets:
#	150
#	13569
#	24591
#	39652
#	56881
#	70940
#	84276
#	99056
#	116410
#	132043
#	145016
#	164002
#	172177
#	185058
#	195577
#	212729
#	225377
#	239683
#	252289
#	265663
#	274975
#	288122
#	298537
#	310394
#	323458
#	338947
#
# Disc length: 4724 seconds
#
# Revision: 1
# Processed by: cddbd v1.5.2PL0 Copyright (c) Steve Scherf et al.
# Submitted via: EZCDAudioConverter 7.0.6.1
#
DISCID=7a12721a
DTITLE=Harmony In My Head 2/3
DYEAR=1900
DGENRE=
TTITLE0=Eddie and The Hot Rods - Do Anything You Wanna Do
TTITLE1=The Realists - I've Got A Heart
TTITLE2=Radio Stars - The Real Me
TTITLE3=The Photos - Irene
TTITLE4=Straight Eight - I'm Sorry
TTITLE5=Ruts - West One (Shine On Me)
TTITLE6=The Circles - Billy
TTITLE7=Wreckless Eric - Broken Doll
TTITLE8=The Jags - I Never Was A Beach Boy
TTITLE9=The Times - Biff! Bang! Pow!
TTITLE10=The Radiators - Let's Talk About The Weather
TTITLE11=The Piranhas - Jilly
TTITLE12=Really 3rds - Everyday, Everyway
TTITLE13=The Carpettes - How About Me And You
TTITLE14=The Monos! - UFO
TTITLE15=Snips - 9 O'Clock
TTITLE16=TV21 - Shattered By It All
TTITLE17=Disguise - Hey Baby
TTITLE18=Going Red - Some Boys
TTITLE19=The Letters - Don't Want You Back
TTITLE20=The Vandells - Ruby Toot
TTITLE21=Autographs - While I'm Still Young
TTITLE22=Strangeways - Wasting Time
TTITLE23=The Accidents - Curtains For You
TTITLE24=Those Naughty Lumps - Down At The Zoo
TTITLE25=The Chefs - 24 Hours
EXTD=
EXTT0=
EXTT1=
EXTT2=
EXTT3=
EXTT4=
EXTT5=
EXTT6=
EXTT7=
EXTT8=
EXTT9=
EXTT10=
EXTT11=
EXTT12=
EXTT13=
EXTT14=
EXTT15=
EXTT16=
EXTT17=
EXTT18=
EXTT19=
EXTT20=
EXTT21=
EXTT22=
EXTT23=
EXTT24=
EXTT25=
PLAYORDER=
